{
  "accessors": [
    {
      "bufferView": 2,
      "componentType": 5126,
      "count": 2894,
      "max": [
        0.10329946875572205,
        0.10433241724967957,
        0.05470883846282959
      ],
      "min": [
        -0.10328038036823273,
        -0.14697006344795227,
        -0.027773618698120117
      ],
      "type": "VEC3"
    },
    {
      "bufferView": 2,
      "byteOffset": 34728,
      "componentType": 5126,
      "count": 2894,
      "max": [
        0.9998525977134705,
        0.9988453388214111,
        0.8609856367111206
      ],
      "min": [
        -0.9998411536216736,
        -0.8162951469421387,
        -0.9991311430931091
      ],
      "type": "VEC3"
    },
    {
      "bufferView": 1,
      "componentType": 5126,
      "count": 2894,
      "max": [
        0.942192554473877,
        0.9359123110771179
      ],
      "min": [
        0.7188643217086792,
        0.7090777158737183
      ],
      "type": "VEC2"
    },
    {
      "bufferView": 0,
      "componentType": 5125,
      "count": 3888,
      "type": "SCALAR"
    },
    {
      "bufferView": 2,
      "byteOffset": 69456,
      "componentType": 5126,
      "count": 2510,
      "max": [
        0.12197774648666382,
        0.12310335040092468,
        0.05470883846282959
      ],
      "min": [
        -0.12224671244621277,
        -0.1637381613254547,
        -0.04461312294006348
      ],
      "type": "VEC3"
    },
    {
      "bufferView": 2,
      "byteOffset": 99576,
      "componentType": 5126,
      "count": 2510,
      "max": [
        0.9906485676765442,
        0.9342349171638489,
        0.9993528723716736
      ],
      "min": [
        -0.9919016361236572,
        -0.9843285083770752,
        -0.861487627029419
      ],
      "type": "VEC3"
    },
    {
      "bufferView": 1,
      "byteOffset": 23152,
      "componentType": 5126,
      "count": 2510,
      "max": [
        0.942192554473877,
        0.9359123110771179
      ],
      "min": [
        0.7188643217086792,
        0.7090777158737183
      ],
      "type": "VEC2"
    },
    {
      "bufferView": 0,
      "byteOffset": 15552,
      "componentType": 5125,
      "count": 3504,
      "type": "SCALAR"
    },
    {
      "bufferView": 2,
      "byteOffset": 129696,
      "componentType": 5126,
      "count": 6744,
      "max": [
        8.316418647766113,
        0.4237528443336487,
        2.1140754222869873
      ],
      "min": [
        -4.53428840637207,
        -2.588090181350708,
        -1.8089405298233032
      ],
      "type": "VEC3"
    },
    {
      "bufferView": 2,
      "byteOffset": 210624,
      "componentType": 5126,
      "count": 6744,
      "max": [
        0.9998297691345215,
        0.9999772310256958,
        0.9999713897705078
      ],
      "min": [
        -0.9997928142547607,
        -0.9998029470443726,
        -0.9997440576553345
      ],
      "type": "VEC3"
    },
    {
      "bufferView": 1,
      "byteOffset": 43232,
      "componentType": 5126,
      "count": 6744,
      "max": [
        0.8750001192092896,
        1.0
      ],
      "min": [
        0.1250000149011612,
        -1.1920928955078125e-07
      ],
      "type": "VEC2"
    },
    {
      "bufferView": 0,
      "byteOffset": 29568,
      "componentType": 5125,
      "count": 36864,
      "type": "SCALAR"
    },
    {
      "bufferView": 2,
      "byteOffset": 291552,
      "componentType": 5126,
      "count": 50338,
      "max": [
        0.9923788905143738,
        1.2579166889190674,
        1.0549875497817993
      ],
      "min": [
        -1.0227680206298828,
        -0.209722101688385,
        -1.055384874343872
      ],
      "type": "VEC3"
    },
    {
      "bufferView": 2,
      "byteOffset": 895608,
      "componentType": 5126,
      "count": 50338,
      "max": [
        0.9999961853027344,
        0.9999971389770508,
        0.9998024702072144
      ],
      "min": [
        -0.9999992847442627,
        -0.5089433789253235,
        -0.9998964071273804
      ],
      "type": "VEC3"
    },
    {
      "bufferView": 1,
      "byteOffset": 97184,
      "componentType": 5126,
      "count": 50338,
      "max": [
        0.9998694658279419,
        0.9998694062232971
      ],
      "min": [
        0.00013057724572718143,
        0.14638876914978027
      ],
      "type": "VEC2"
    },
    {
      "bufferView": 0,
      "byteOffset": 177024,
      "componentType": 5125,
      "count": 298944,
      "type": "SCALAR"
    },
    {
      "bufferView": 2,
      "byteOffset": 1499664,
      "componentType": 5126,
      "count": 19055,
      "max": [
        0.7572383880615234,
        0.8230933547019958,
        0.9613498449325562
      ],
      "min": [
        -0.9545056819915771,
        -1.1416568756103516,
        -0.9613499641418457
      ],
      "type": "VEC3"
    },
    {
      "bufferView": 2,
      "byteOffset": 1728324,
      "componentType": 5126,
      "count": 19055,
      "max": [
        0.7348456978797913,
        0.9999263286590576,
        0.9999251365661621
      ],
      "min": [
        -0.999919056892395,
        -0.9999889135360718,
        -0.9999251365661621
      ],
      "type": "VEC3"
    },
    {
      "bufferView": 3,
      "componentType": 5126,
      "count": 19055,
      "max": [
        0.9988335967063904,
        0.9999295473098755,
        0.9972921013832092,
        1.0
      ],
      "min": [
        -0.9999964833259583,
        -0.9997758269309998,
        -0.999992311000824,
        -1.0
      ],
      "type": "VEC4"
    },
    {
      "bufferView": 1,
      "byteOffset": 499888,
      "componentType": 5126,
      "count": 19055,
      "max": [
        0.8750002384185791,
        1.0
      ],
      "min": [
        0.4267036020755768,
        -2.384185791015625e-07
      ],
      "type": "VEC2"
    },
    {
      "bufferView": 1,
      "byteOffset": 652328,
      "componentType": 5126,
      "count": 19055,
      "max": [
        0.8750002384185791,
        1.0
      ],
      "min": [
        0.4267036020755768,
        -2.384185791015625e-07
      ],
      "type": "VEC2"
    },
    {
      "bufferView": 0,
      "byteOffset": 1372800,
      "componentType": 5125,
      "count": 109056,
      "type": "SCALAR"
    }
  ],
  "asset": {
    "extras": {
      "author": "0ppai (https://sketchfab.com/Remschems)",
      "license": "CC-BY-4.0 (http://creativecommons.org/licenses/by/4.0/)",
      "source": "https://sketchfab.com/3d-models/ghost-face-mask-wasa-free-3d-model-67a02d2ca29347908f41368eb9146dc2",
      "title": "ghost face mask - wasa - free 3d model"
    },
    "generator": "Sketchfab-15.55.0",
    "version": "2.0"
  },
  "bufferViews": [
    {
      "buffer": 0,
      "byteLength": 1809024,
      "name": "floatBufferViews",
      "target": 34963
    },
    {
      "buffer": 0,
      "byteLength": 804768,
      "byteOffset": 1809024,
      "byteStride": 8,
      "name": "floatBufferViews",
      "target": 34962
    },
    {
      "buffer": 0,
      "byteLength": 1956984,
      "byteOffset": 2613792,
      "byteStride": 12,
      "name": "floatBufferViews",
      "target": 34962
    },
    {
      "buffer": 0,
      "byteLength": 304880,
      "byteOffset": 4570776,
      "byteStride": 16,
      "name": "floatBufferViews",
      "target": 34962
    }
  ],
  "buffers": [
    {
      "byteLength": 4875656,
      "uri": "scene.bin"
    }
  ],
  "extensionsUsed": [
    "KHR_materials_clearcoat",
    "KHR_materials_specular"
  ],
  "images": [
    {
      "uri": "textures/Material.002_baseColor.png"
    },
    {
      "uri": "textures/cara_baseColor.png"
    },
    {
      "uri": "textures/negro_baseColor.jpeg"
    }
  ],
  "materials": [
    {
      "doubleSided": true,
      "name": "Material.002",
      "pbrMetallicRoughness": {
        "baseColorTexture": {
          "index": 0
        },
        "metallicFactor": 0.0,
        "roughnessFactor": 0.986364
      }
    },
    {
      "name": "linea",
      "pbrMetallicRoughness": {
        "baseColorFactor": [
          0.0,
          0.0,
          0.0,
          1.0
        ],
        "metallicFactor": 0.0,
        "roughnessFactor": 0.5
      }
    },
    {
      "doubleSided": true,
      "extensions": {
        "KHR_materials_clearcoat": {
          "clearcoatFactor": 1.0,
          "clearcoatRoughnessFactor": 0.04
        }
      },
      "name": "Material.001",
      "pbrMetallicRoughness": {
        "baseColorFactor": [
          0.597202,
          0.01520849999999998,
          0.033104799999999886,
          1.0
        ],
        "metallicFactor": 0.5,
        "roughnessFactor": 0.41295363947775837
      }
    },
    {
      "doubleSided": true,
      "extensions": {
        "KHR_materials_clearcoat": {
          "clearcoatFactor": 1.0,
          "clearcoatRoughnessFactor": 0.04
        },
        "KHR_materials_specular": {
          "specularColorFactor": [
            1.0,
            1.0,
            1.0
          ],
          "specularFactor": 0.49828723287537635
        }
      },
      "name": "cara",
      "pbrMetallicRoughness": {
        "baseColorTexture": {
          "index": 1
        },
        "metallicFactor": 0.0,
        "roughnessFactor": 0.3310455803293877
      }
    },
    {
      "doubleSided": true,
      "name": "negro",
      "normalTexture": {
        "index": 2
      },
      "pbrMetallicRoughness": {
        "baseColorFactor": [
          0.041142982530994375,
          0.041142982530994375,
          0.041142982530994375,
          1.0
        ],
        "baseColorTexture": {
          "index": 2
        },
        "metallicFactor": 0.0,
        "roughnessFactor": 0.5687605905084663
      }
    }
  ],
  "meshes": [
    {
      "name": "Object_0",
      "primitives": [
        {
          "attributes": {
            "NORMAL": 1,
            "POSITION": 0,
            "TEXCOORD_0": 2
          },
          "indices": 3,
          "material": 0,
          "mode": 4
        }
      ]
    },
    {
      "name": "Object_1",
      "primitives": [
        {
          "attributes": {
            "NORMAL": 5,
            "POSITION": 4,
            "TEXCOORD_0": 6
          },
          "indices": 7,
          "material": 1,
          "mode": 4
        }
      ]
    },
    {
      "name": "Object_2",
      "primitives": [
        {
          "attributes": {
            "NORMAL": 9,
            "POSITION": 8,
            "TEXCOORD_0": 10
          },
          "indices": 11,
          "material": 2,
          "mode": 4
        }
      ]
    },
    {
      "name": "Object_3",
      "primitives": [
        {
          "attributes": {
            "NORMAL": 13,
            "POSITION": 12,
            "TEXCOORD_0": 14
          },
          "indices": 15,
          "material": 3,
          "mode": 4
        }
      ]
    },
    {
      "name": "Object_4",
      "primitives": [
        {
          "attributes": {
            "NORMAL": 17,
            "POSITION": 16,
            "TANGENT": 18,
            "TEXCOORD_0": 19,
            "TEXCOORD_1": 20
          },
          "indices": 21,
          "material": 4,
          "mode": 4
        }
      ]
    }
  ],
  "nodes": [
    {
      "children": [
        1
      ],
      "matrix": [
        1.0,
        0.0,
        0.0,
        0.0,
        0.0,
        2.220446049250313e-16,
        -1.0,
        0.0,
        0.0,
        1.0,
        2.220446049250313e-16,
        0.0,
        0.0,
        0.0,
        0.0,
        1.0
      ],
      "name": "Sketchfab_model"
    },
    {
      "children": [
        2
      ],
      "name": "root"
    },
    {
      "children": [
        3,
        6,
        8,
        10
      ],
      "matrix": [
        1.0,
        0.0,
        0.0,
        0.0,
        0.0,
        2.220446049250313e-16,
        1.0,
        0.0,
        0.0,
        -1.0,
        2.220446049250313e-16,
        0.0,
        0.0,
        0.0,
        0.0,
        1.0
      ],
      "name": "GLTF_SceneRootNode"
    },
    {
      "children": [
        4,
        5
      ],
      "matrix": [
        -0.0158348277672173,
        0.0016817319057089374,
        -4.102112380529163,
        0.0,
        -0.18711772465491425,
        2.9210528599038175,
        0.0019198412925613033,
        0.0,
        3.059596804335673,
        0.1960003258947458,
        -0.011730192634554415,
        0.0,
        1.5630178451538086,
        1.8217178583145142,
        0.004043862223625183,
        1.0
      ],
      "name": "Cube.017_0"
    },
    {
      "mesh": 0,
      "name": "Object_4"
    },
    {
      "mesh": 1,
      "name": "Object_5"
    },
    {
      "children": [
        7
      ],
      "matrix": [
        0.06935452181320191,
        -0.00106841836992626,
        0.0015169730127588237,
        0.0,
        0.003555968407332345,
        0.517825860219726,
        0.20213423075377082,
        0.0,
        -0.00581413196799457,
        -0.08135514064386758,
        0.20851723332375505,
        0.0,
        2.0076358318328857,
        -0.9381289482116699,
        -0.2604338824748993,
        1.0
      ],
      "name": "Cube.001_4"
    },
    {
      "mesh": 2,
      "name": "Object_7"
    },
    {
      "children": [
        9
      ],
      "matrix": [
        0.00010904581619059338,
        -2.602900264363158,
        -0.0,
        0.0,
        0.9536379567360699,
        3.995167650730461e-05,
        0.0,
        0.0,
        0.0,
        -0.0,
        1.3849042654037476,
        0.0,
        1.0,
        0.0,
        0.0,
        1.0
      ],
      "name": "Circle.001_5"
    },
    {
      "mesh": 3,
      "name": "Object_9"
    },
    {
      "children": [
        11
      ],
      "matrix": [
        2.620612621307373,
        0.0,
        0.0,
        0.0,
        0.0,
        3.1212947368621826,
        0.0,
        0.0,
        0.0,
        0.0,
        1.9538878202438354,
        0.0,
        0.3999999761581421,
        0.6000000238418579,
        0.0,
        1.0
      ],
      "name": "Cube.002_6"
    },
    {
      "mesh": 4,
      "name": "Object_11"
    }
  ],
  "samplers": [
    {
      "magFilter": 9729,
      "minFilter": 9987,
      "wrapS": 10497,
      "wrapT": 10497
    }
  ],
  "scene": 0,
  "scenes": [
    {
      "name": "Sketchfab_Scene",
      "nodes": [
        0
      ]
    }
  ],
  "textures": [
    {
      "sampler": 0,
      "source": 0
    },
    {
      "sampler": 0,
      "source": 1
    },
    {
      "sampler": 0,
      "source": 2
    }
  ]
}
